<svg width="120" height="12" viewBox="0 0 120 12" fill="none" xmlns="http://www.w3.org/2000/svg">
<path d="M4.37695 0.59375H5.18555H11.1621C11.4902 0.605469 11.7598 0.728516 11.9707 0.962891C12.1934 1.19727 12.3047 1.47852 12.3047 1.80664C12.2461 2.50977 11.8652 2.89062 11.1621 2.94922H4.97461C4.5293 2.97266 4.16016 3.14258 3.86719 3.45898C3.57422 3.77539 3.35742 4.13867 3.2168 4.54883C3.08789 4.94727 3.02344 5.35742 3.02344 5.7793C3.02344 6.20117 3.08789 6.61719 3.2168 7.02734C3.35742 7.42578 3.57422 7.7832 3.86719 8.09961C4.16016 8.41602 4.5293 8.58594 4.97461 8.60938H11.1621C11.4902 8.62109 11.7598 8.74414 11.9707 8.97852C12.1934 9.21289 12.3047 9.49414 12.3047 9.82227C12.293 10.1387 12.1758 10.4082 11.9531 10.6309C11.7422 10.8418 11.4785 10.9531 11.1621 10.9648H4.71094H4.37695C3.55664 10.918 2.87695 10.6074 2.33789 10.0332C1.81055 9.44727 1.42969 8.78516 1.19531 8.04688C0.972656 7.30859 0.861328 6.55273 0.861328 5.7793C0.861328 5.00586 0.978516 4.25 1.21289 3.51172C1.44727 2.77344 1.82812 2.11719 2.35547 1.54297C2.88281 0.957031 3.55664 0.640625 4.37695 0.59375ZM12.2695 5.70898C12.2695 6.03711 12.1523 6.3125 11.918 6.53516C11.6953 6.76953 11.4199 6.88672 11.0918 6.88672H5.7832C5.45508 6.88672 5.17383 6.77539 4.93945 6.55273C4.7168 6.31836 4.60547 6.03711 4.60547 5.70898C4.60547 5.38086 4.7168 5.09961 4.93945 4.86523C5.17383 4.64258 5.45508 4.53125 5.7832 4.53125H11.0918C11.4199 4.53125 11.6953 4.64844 11.918 4.88281C12.1523 5.10547 12.2695 5.38086 12.2695 5.70898ZM15.2402 0.3125C15.5684 0.3125 15.8496 0.423828 16.084 0.646484C16.3184 0.857422 16.4414 1.12695 16.4531 1.45508V5.69141C16.4414 6.17188 16.4707 6.61719 16.541 7.02734C16.623 7.42578 16.8105 7.7832 17.1035 8.09961C17.3965 8.41602 17.7656 8.58594 18.2109 8.60938H23.8359C24.1641 8.62109 24.4336 8.74414 24.6445 8.97852C24.8672 9.21289 24.9785 9.49414 24.9785 9.82227C24.9668 10.1387 24.8496 10.4082 24.627 10.6309C24.416 10.8418 24.1523 10.9531 23.8359 10.9648H17.6133C16.793 10.918 16.1133 10.6426 15.5742 10.1387C15.0469 9.62305 14.666 8.99609 14.4316 8.25781C14.209 7.51953 14.0918 6.73438 14.0801 5.90234V1.45508C14.0918 1.13867 14.209 0.875 14.4316 0.664062C14.6543 0.441406 14.9238 0.324219 15.2402 0.3125ZM38.0215 1.77148C38.0215 2.09961 37.9043 2.375 37.6699 2.59766C37.4473 2.83203 37.1719 2.94922 36.8438 2.94922H29.8125C29.5898 2.96094 29.4023 3.01367 29.25 3.10742C29.1094 3.18945 29.0039 3.28906 28.9336 3.40625C28.8633 3.51172 28.8281 3.62305 28.8281 3.74023C28.8281 3.85742 28.8633 3.97461 28.9336 4.0918C29.0039 4.19727 29.1094 4.29688 29.25 4.39062C29.4023 4.47266 29.5898 4.51953 29.8125 4.53125H34.8047C35.625 4.55469 36.2988 4.74805 36.8262 5.11133C37.3652 5.46289 37.7461 5.87305 37.9688 6.3418C38.2031 6.79883 38.3203 7.26758 38.3203 7.74805C38.3203 8.2168 38.2031 8.68555 37.9688 9.1543C37.7344 9.61133 37.3535 10.0215 36.8262 10.3848C36.2988 10.7363 35.625 10.9121 34.8047 10.9121H34.6992C34.6289 10.9238 34.5586 10.9297 34.4883 10.9297H27.8438C27.5156 10.9297 27.2344 10.8184 27 10.5957C26.7773 10.3613 26.666 10.0801 26.666 9.75195C26.666 9.42383 26.7832 9.14844 27.0176 8.92578C27.2402 8.69141 27.5156 8.57422 27.8438 8.57422H34.9102C35.1328 8.58594 35.3145 8.54492 35.4551 8.45117C35.6074 8.35742 35.7188 8.25195 35.7891 8.13477C35.8594 8.00586 35.8945 7.87695 35.8945 7.74805C35.8945 7.66602 35.8594 7.55469 35.7891 7.41406C35.7188 7.26172 35.6074 7.13867 35.4551 7.04492C35.3145 6.95117 35.1328 6.89844 34.9102 6.88672H29.918C29.0977 6.86328 28.418 6.67578 27.8789 6.32422C27.3516 5.97266 26.9707 5.57422 26.7363 5.12891C26.5137 4.67188 26.4023 4.20898 26.4023 3.74023C26.4023 3.2832 26.5195 2.83203 26.7539 2.38672C26.9883 1.92969 27.3691 1.52539 27.8965 1.17383C28.4238 0.822266 29.0977 0.634766 29.918 0.611328H30.0234C30.0938 0.599609 30.1641 0.59375 30.2344 0.59375H36.8438C37.1719 0.59375 37.4473 0.710938 37.6699 0.945312C37.9043 1.16797 38.0215 1.44336 38.0215 1.77148ZM41.502 0.3125C41.8184 0.324219 42.0879 0.441406 42.3105 0.664062C42.5332 0.875 42.6504 1.13867 42.6621 1.45508V4.39062H48.375V1.45508C48.3867 1.12695 48.5098 0.857422 48.7441 0.646484C48.9785 0.423828 49.2598 0.3125 49.5879 0.3125C49.9043 0.324219 50.1738 0.441406 50.3965 0.664062C50.6191 0.875 50.7363 1.13867 50.748 1.45508V10.0684C50.6777 10.7715 50.291 11.1523 49.5879 11.2109C49.2598 11.2109 48.9727 11.1055 48.7266 10.8945C48.4922 10.6719 48.375 10.3965 48.375 10.0684V6.74609H42.6621V10.0684C42.5918 10.7715 42.2051 11.1523 41.502 11.2109C41.1738 11.2109 40.8867 11.1055 40.6406 10.8945C40.4062 10.6719 40.2891 10.3965 40.2891 10.0684V1.45508C40.3008 1.12695 40.4238 0.857422 40.6582 0.646484C40.8926 0.423828 41.1738 0.3125 41.502 0.3125ZM62.3672 0.59375C62.9648 0.605469 63.498 0.792969 63.9668 1.15625C64.4355 1.51953 64.8105 1.95312 65.0918 2.45703C65.3848 2.96094 65.6016 3.49414 65.7422 4.05664C65.8828 4.61914 65.9531 5.19336 65.9531 5.7793C65.9531 6.55273 65.8301 7.31445 65.584 8.06445C65.3496 8.80273 64.957 9.45898 64.4062 10.0332C63.8672 10.6074 63.1875 10.918 62.3672 10.9648H56.2324C55.4121 10.9297 54.7266 10.625 54.1758 10.0508C53.625 9.47656 53.2324 8.81445 52.998 8.06445C52.7754 7.31445 52.6641 6.55273 52.6641 5.7793C52.6641 5.00586 52.7812 4.25 53.0156 3.51172C53.25 2.76172 53.6367 2.09961 54.1758 1.52539C54.7266 0.939453 55.4121 0.628906 56.2324 0.59375H56.5664H62.0332H62.3672ZM61.7695 8.60938C62.2148 8.58594 62.584 8.42188 62.877 8.11719C63.1816 7.80078 63.3984 7.4375 63.5273 7.02734C63.6562 6.61719 63.7207 6.20117 63.7207 5.7793C63.7207 5.35742 63.6504 4.94727 63.5098 4.54883C63.3809 4.13867 63.1699 3.77539 62.877 3.45898C62.584 3.14258 62.2148 2.97266 61.7695 2.94922H56.7773C56.332 2.97266 55.9629 3.14258 55.6699 3.45898C55.377 3.77539 55.1602 4.13867 55.0195 4.54883C54.8906 4.94727 54.8262 5.35742 54.8262 5.7793C54.8262 6.20117 54.8906 6.61719 55.0195 7.02734C55.1484 7.4375 55.3594 7.80078 55.6523 8.11719C55.957 8.42188 56.332 8.58594 56.7773 8.60938H61.7695ZM75.498 0.59375C76.3184 0.640625 76.9922 0.957031 77.5195 1.54297C78.0469 2.11719 78.4277 2.77344 78.6621 3.51172C78.8965 4.25 79.0137 5.00586 79.0137 5.7793C79.0137 6.55273 78.8965 7.30859 78.6621 8.04688C78.4395 8.78516 78.0586 9.44727 77.5195 10.0332C76.9922 10.6074 76.3184 10.918 75.498 10.9648H69.0293C68.7129 10.9531 68.4434 10.8418 68.2207 10.6309C68.0098 10.4082 67.8984 10.1387 67.8867 9.82227V5.46289C67.8984 5.13477 68.0215 4.86523 68.2559 4.6543C68.4902 4.43164 68.7715 4.32031 69.0996 4.32031C69.416 4.33203 69.6855 4.44922 69.9082 4.67188C70.1309 4.88281 70.248 5.14648 70.2598 5.46289V8.13477C70.2598 8.45117 70.4238 8.60938 70.752 8.60938H74.9004C75.3457 8.58594 75.7148 8.41602 76.0078 8.09961C76.3008 7.7832 76.5117 7.42578 76.6406 7.02734C76.7812 6.61719 76.8516 6.20117 76.8516 5.7793C76.8516 5.35742 76.7812 4.94727 76.6406 4.54883C76.5117 4.13867 76.3008 3.77539 76.0078 3.45898C75.7148 3.14258 75.3457 2.97266 74.9004 2.94922H69.0293C68.3262 2.89062 67.9453 2.50977 67.8867 1.80664C67.8867 1.47852 67.9922 1.19727 68.2031 0.962891C68.4258 0.728516 68.7012 0.605469 69.0293 0.59375H75.498ZM90.7207 1.45508C90.791 0.751953 91.1777 0.371094 91.8809 0.3125C92.209 0.3125 92.4902 0.423828 92.7246 0.646484C92.9707 0.857422 93.0938 1.12695 93.0938 1.45508V9.82227C93.082 10.1504 92.959 10.4258 92.7246 10.6484C92.4902 10.8594 92.209 10.9648 91.8809 10.9648H84.498C83.4668 10.9297 82.6875 10.6895 82.1602 10.2441C81.6328 9.78711 81.252 9.27734 81.0176 8.71484C80.7832 8.14062 80.666 7.56055 80.666 6.97461C80.666 6.36523 80.7773 5.7793 81 5.2168C81.2344 4.64258 81.6152 4.13281 82.1426 3.6875C82.6816 3.23047 83.3613 2.99609 84.1816 2.98438H88.6113C88.9395 2.98438 89.2148 3.10156 89.4375 3.33594C89.6719 3.55859 89.7891 3.83398 89.7891 4.16211C89.7891 4.49023 89.6719 4.77148 89.4375 5.00586C89.2148 5.22852 88.9395 5.33984 88.6113 5.33984H84.1113C83.8887 5.33984 83.6953 5.43359 83.5312 5.62109C83.3672 5.79688 83.2441 6.00781 83.1621 6.25391C83.0918 6.48828 83.0566 6.72266 83.0566 6.95703C83.0566 7.20312 83.0918 7.44922 83.1621 7.69531C83.2441 7.92969 83.3672 8.14062 83.5312 8.32812C83.6953 8.50391 83.8887 8.59766 84.1113 8.60938H90.2637C90.5684 8.59766 90.7207 8.44531 90.7207 8.15234V1.45508ZM99.0176 10.9648C97.9863 10.9297 97.207 10.6895 96.6797 10.2441C96.1523 9.78711 95.7715 9.27734 95.5371 8.71484C95.3027 8.14062 95.1855 7.56055 95.1855 6.97461C95.1855 6.36523 95.2969 5.7793 95.5195 5.2168C95.7539 4.64258 96.1348 4.13281 96.6621 3.6875C97.2012 3.23047 97.8809 2.99609 98.7012 2.98438H105.381C105.709 2.98438 105.984 3.0957 106.207 3.31836C106.441 3.5293 106.559 3.78711 106.559 4.0918C106.559 4.4082 106.441 4.67773 106.207 4.90039C105.984 5.11133 105.709 5.2168 105.381 5.2168H98.8066C98.5488 5.2168 98.3203 5.30469 98.1211 5.48047C97.9336 5.65625 97.793 5.88477 97.6992 6.16602C97.6172 6.44727 97.5762 6.72266 97.5762 6.99219C97.5762 7.28516 97.6172 7.57227 97.6992 7.85352C97.793 8.13477 97.9336 8.36328 98.1211 8.53906C98.3203 8.70312 98.5488 8.79102 98.8066 8.80273H105.381C105.709 8.80273 105.984 8.9082 106.207 9.11914C106.441 9.33008 106.559 9.58203 106.559 9.875C106.559 10.1797 106.441 10.4375 106.207 10.6484C105.984 10.8594 105.709 10.9648 105.381 10.9648H99.0176ZM106.348 6.93945C106.348 7.16211 106.248 7.35547 106.049 7.51953C105.873 7.67188 105.65 7.74805 105.381 7.74805H99.6328C99.3633 7.74805 99.1348 7.67188 98.9473 7.51953C98.7598 7.35547 98.666 7.16211 98.666 6.93945C98.666 6.72852 98.7598 6.54102 98.9473 6.37695C99.1348 6.22461 99.3633 6.14844 99.6328 6.14844H105.381C105.65 6.14844 105.879 6.23047 106.066 6.39453C106.254 6.54688 106.348 6.72852 106.348 6.93945ZM111.357 10.0332C110.76 9.22461 110.162 8.16406 109.564 6.85156L108.422 4.39062C108.363 4.26172 108.328 4.12109 108.316 3.96875C108.293 3.64062 108.393 3.35938 108.615 3.125C108.838 2.89062 109.131 2.77344 109.494 2.77344C109.893 2.77344 110.186 2.85547 110.373 3.01953C110.572 3.17188 110.73 3.37109 110.848 3.61719L111.674 5.65625C111.885 6.13672 112.09 6.59375 112.289 7.02734C112.5 7.44922 112.734 7.83594 112.992 8.1875C113.262 8.53906 113.561 8.72656 113.889 8.75C114.205 8.72656 114.504 8.53906 114.785 8.1875C115.031 7.83594 115.254 7.44922 115.453 7.02734C115.664 6.59375 115.875 6.13672 116.086 5.65625L116.912 3.61719C117.029 3.37109 117.182 3.17188 117.369 3.01953C117.568 2.85547 117.867 2.77344 118.266 2.77344C118.629 2.77344 118.922 2.89062 119.145 3.125C119.367 3.35938 119.467 3.64062 119.443 3.96875C119.432 4.12109 119.396 4.26172 119.338 4.39062L118.195 6.85156C117.598 8.16406 117 9.22461 116.402 10.0332C115.828 10.8301 114.99 11.2344 113.889 11.2461C112.775 11.2344 111.932 10.8301 111.357 10.0332Z" fill="white"/>
</svg>
